<svg width="16" height="16" viewBox="0 0 16 16" fill="none" xmlns="http://www.w3.org/2000/svg">
<path d="M0.439997 0.439997C0.579127 0.300669 0.74436 0.190136 0.926245 0.114721C1.10813 0.0393063 1.3031 0.000488281 1.5 0.000488281C1.6969 0.000488281 1.89186 0.0393063 2.07375 0.114721C2.25563 0.190136 2.42087 0.300669 2.56 0.439997L8 5.878L13.44 0.439997C13.5792 0.300796 13.7445 0.190375 13.9263 0.11504C14.1082 0.0397052 14.3031 0.00093079 14.5 0.000930786C14.6969 0.000930782 14.8918 0.0397052 15.0737 0.11504C15.2555 0.190375 15.4208 0.300796 15.56 0.439997C15.6992 0.579198 15.8096 0.744454 15.885 0.926329C15.9603 1.1082 15.9991 1.30314 15.9991 1.5C15.9991 1.69686 15.9603 1.89179 15.885 2.07367C15.8096 2.25554 15.6992 2.4208 15.56 2.56L10.122 8L15.56 13.44C15.8411 13.7211 15.9991 14.1024 15.9991 14.5C15.9991 14.8976 15.8411 15.2789 15.56 15.56C15.2789 15.8411 14.8976 15.9991 14.5 15.9991C14.1024 15.9991 13.7211 15.8411 13.44 15.56L8 10.122L2.56 15.56C2.27887 15.8411 1.89757 15.9991 1.5 15.9991C1.10242 15.9991 0.721127 15.8411 0.439997 15.56C0.158868 15.2789 0.000930786 14.8976 0.000930786 14.5C0.000930786 14.1024 0.158868 13.7211 0.439997 13.44L5.878 8L0.439997 2.56C0.300669 2.42087 0.190136 2.25563 0.114721 2.07375C0.0393063 1.89186 0.000488281 1.6969 0.000488281 1.5C0.000488281 1.3031 0.0393063 1.10813 0.114721 0.926245C0.190136 0.74436 0.300669 0.579127 0.439997 0.439997Z" fill="white"/>
</svg>
