<svg width="8" height="8" viewBox="0 0 8 8" fill="none" xmlns="http://www.w3.org/2000/svg">
<path d="M0.219754 0.219754C0.289319 0.15009 0.371936 0.094824 0.462878 0.0571165C0.553821 0.019409 0.651305 0 0.749754 0C0.848204 0 0.945688 0.019409 1.03663 0.0571165C1.12757 0.094824 1.21019 0.15009 1.27975 0.219754L3.99975 2.93875L6.71975 0.219754C6.78936 0.150154 6.87198 0.0949436 6.96292 0.057276C7.05386 0.0196084 7.15132 0.000221254 7.24975 0.000221252C7.34818 0.000221251 7.44565 0.0196084 7.53659 0.057276C7.62753 0.0949436 7.71015 0.150154 7.77975 0.219754C7.84935 0.289355 7.90457 0.371983 7.94223 0.46292C7.9799 0.553858 7.99929 0.651324 7.99929 0.749754C7.99929 0.848185 7.9799 0.945651 7.94223 1.03659C7.90457 1.12753 7.84935 1.21015 7.77975 1.27975L5.06075 3.99975L7.77975 6.71975C7.92032 6.86032 7.99929 7.05097 7.99929 7.24975C7.99929 7.44854 7.92032 7.63919 7.77975 7.77975C7.63919 7.92032 7.44854 7.99929 7.24975 7.99929C7.05097 7.99929 6.86032 7.92032 6.71975 7.77975L3.99975 5.06075L1.27975 7.77975C1.13919 7.92032 0.948543 7.99929 0.749754 7.99929C0.550966 7.99929 0.360319 7.92032 0.219754 7.77975C0.0791897 7.63919 0.000221252 7.44854 0.000221252 7.24975C0.000221252 7.05097 0.0791897 6.86032 0.219754 6.71975L2.93875 3.99975L0.219754 1.27975C0.15009 1.21019 0.094824 1.12757 0.0571165 1.03663C0.019409 0.945688 0 0.848204 0 0.749754C0 0.651305 0.019409 0.553821 0.0571165 0.462878C0.094824 0.371936 0.15009 0.289319 0.219754 0.219754Z" fill="#222222"/>
</svg>
