<svg width="25" height="25" viewBox="0 0 25 25" fill="none" xmlns="http://www.w3.org/2000/svg">
<path d="M21.1914 17.8711H19.4751C19.3579 17.8711 19.248 17.9223 19.1748 18.0127C19.0039 18.2202 18.8208 18.4204 18.6279 18.6108C17.8391 19.4004 16.9047 20.0297 15.8765 20.4638C14.8112 20.9138 13.6662 21.1446 12.5098 21.1426C11.3403 21.1426 10.2075 20.9131 9.14306 20.4638C8.11481 20.0297 7.18043 19.4004 6.39159 18.6108C5.60135 17.8239 4.97123 16.8911 4.53613 15.8642C4.08447 14.7998 3.85742 13.6694 3.85742 12.5C3.85742 11.3305 4.08691 10.2002 4.53613 9.13572C4.9707 8.10789 5.5957 7.18259 6.39159 6.38914C7.18749 5.59568 8.11279 4.97068 9.14306 4.53611C10.2075 4.08689 11.3403 3.8574 12.5098 3.8574C13.6792 3.8574 14.812 4.08445 15.8765 4.53611C16.9067 4.97068 17.832 5.59568 18.6279 6.38914C18.8208 6.58201 19.0015 6.7822 19.1748 6.98728C19.248 7.07761 19.3603 7.12888 19.4751 7.12888H21.1914C21.3452 7.12888 21.4404 6.95798 21.355 6.82859C19.4824 3.91843 16.206 1.99216 12.4829 2.00193C6.63329 2.01658 1.94335 6.76511 2.00195 12.6074C2.06054 18.3569 6.74316 22.998 12.5098 22.998C16.2231 22.998 19.4849 21.0742 21.355 18.1714C21.438 18.042 21.3452 17.8711 21.1914 17.8711ZM23.3618 12.3462L19.8975 9.61179C19.7681 9.50925 19.5801 9.60203 19.5801 9.7656V11.6211H11.9141C11.8066 11.6211 11.7187 11.709 11.7187 11.8164V13.1836C11.7187 13.291 11.8066 13.3789 11.9141 13.3789H19.5801V15.2344C19.5801 15.3979 19.7705 15.4907 19.8975 15.3882L23.3618 12.6538C23.3852 12.6355 23.404 12.6122 23.417 12.5855C23.43 12.5589 23.4367 12.5296 23.4367 12.5C23.4367 12.4703 23.43 12.4411 23.417 12.4144C23.404 12.3878 23.3852 12.3644 23.3618 12.3462Z" fill="#292960"/>
</svg>
