<svg width="27" height="27" viewBox="0 0 27 27" fill="none" xmlns="http://www.w3.org/2000/svg">
<path d="M1.83325 22.2493C1.83325 20.7023 2.44783 19.2185 3.5418 18.1246C4.63576 17.0306 6.11949 16.416 7.66659 16.416H19.3333C20.8803 16.416 22.3641 17.0306 23.458 18.1246C24.552 19.2185 25.1666 20.7023 25.1666 22.2493C25.1666 23.0229 24.8593 23.7648 24.3123 24.3117C23.7653 24.8587 23.0235 25.166 22.2499 25.166H4.74992C3.97637 25.166 3.2345 24.8587 2.68752 24.3117C2.14054 23.7648 1.83325 23.0229 1.83325 22.2493Z" stroke="#686868" stroke-width="2.5" stroke-linejoin="round"/>
<path d="M13.5 10.583C15.9162 10.583 17.875 8.62425 17.875 6.20801C17.875 3.79176 15.9162 1.83301 13.5 1.83301C11.0838 1.83301 9.125 3.79176 9.125 6.20801C9.125 8.62425 11.0838 10.583 13.5 10.583Z" stroke="#686868" stroke-width="2.5"/>
</svg>
