<svg width="30" height="30" viewBox="0 0 30 30" fill="none" xmlns="http://www.w3.org/2000/svg">
<path fill-rule="evenodd" clip-rule="evenodd" d="M18.6844 20.674C16.7807 22.0763 14.4175 22.7076 12.0681 22.4413C9.71875 22.1751 7.55675 21.0309 6.01525 19.2381C4.47375 17.4452 3.66662 15.1361 3.75554 12.7734C3.84446 10.4106 4.82288 8.16875 6.49478 6.49686C8.16668 4.82496 10.4086 3.84654 12.7713 3.75762C15.1341 3.66869 17.4432 4.47583 19.236 6.01733C21.0288 7.55882 22.173 9.72083 22.4393 12.0702C22.7055 14.4196 22.0743 16.7828 20.6719 18.6865L25.8375 23.8502C25.9757 23.9789 26.0865 24.1342 26.1633 24.3067C26.2402 24.4792 26.2815 24.6654 26.2849 24.8542C26.2882 25.043 26.2535 25.2306 26.1827 25.4057C26.112 25.5808 26.0067 25.7399 25.8732 25.8734C25.7397 26.0069 25.5806 26.1122 25.4055 26.1829C25.2304 26.2537 25.0428 26.2884 24.854 26.2851C24.6652 26.2817 24.479 26.2404 24.3065 26.1635C24.134 26.0867 23.9787 25.9759 23.85 25.8377L18.6844 20.674ZM19.6875 13.1252C19.6875 14.8657 18.9961 16.5349 17.7654 17.7656C16.5347 18.9963 14.8655 19.6877 13.125 19.6877C11.3845 19.6877 9.71532 18.9963 8.48461 17.7656C7.25391 16.5349 6.5625 14.8657 6.5625 13.1252C6.5625 11.3847 7.25391 9.71552 8.48461 8.48481C9.71532 7.25411 11.3845 6.5627 13.125 6.5627C14.8655 6.5627 16.5347 7.25411 17.7654 8.48481C18.9961 9.71552 19.6875 11.3847 19.6875 13.1252Z" fill="#686868"/>
</svg>
