<svg width="272" height="78" viewBox="0 0 272 78" fill="none" xmlns="http://www.w3.org/2000/svg">
<g filter="url(#filter0_di_197_584)">
<path d="M4.832 18.672C4.832 15.216 5.728 12.6133 7.52 10.864C9.312 9.11466 11.4453 8.24 13.92 8.24C16.4373 8.24 19.8507 8.66666 24.16 9.52C28.4693 10.3733 31.712 10.8213 33.888 10.864C37.5147 10.1813 40.9707 9.34933 44.256 8.368C44.5973 9.47733 44.768 10.864 44.768 12.528C44.768 15.984 43.7653 18.5867 41.76 20.336C39.7973 22.0853 37.28 22.96 34.208 22.96C33.44 22.96 32.416 22.9173 31.136 22.832C28.7893 35.1627 27.616 42.0533 27.616 43.504C27.616 47.6427 28.256 50.736 29.536 52.784C26.976 54.704 24.3093 55.664 21.536 55.664C18.7627 55.664 16.7787 54.8747 15.584 53.296C14.3893 51.6747 13.792 49.2853 13.792 46.128C13.792 42.928 15.0293 34.4373 17.504 20.656C12.6827 21.296 8.62933 22.0213 5.344 22.832C5.00267 21.7653 4.832 20.3787 4.832 18.672ZM65.578 46.128L64.938 45.808C63.786 48.88 62.122 51.2907 59.946 53.04C57.8127 54.7467 55.4233 55.6 52.778 55.6C49.1513 55.6 46.25 54.2347 44.074 51.504C41.898 48.7733 40.81 45.1253 40.81 40.56C40.81 33.4773 43.178 27.5467 47.914 22.768C52.6927 17.9893 58.6233 15.6 65.706 15.6C67.5407 15.6 69.226 15.7707 70.762 16.112C71.018 17.3067 71.1673 18.352 71.21 19.248C73.3433 17.8827 75.5407 17.2 77.802 17.2C80.9167 17.2 82.474 18.8853 82.474 22.256C82.474 23.4507 81.7913 27.056 80.426 33.072C79.1033 39.088 78.442 43.5467 78.442 46.448C78.442 49.3493 79.1033 51.3547 80.426 52.464C78.0367 54.5547 75.5407 55.6 72.938 55.6C70.378 55.6 68.5007 54.832 67.306 53.296C66.154 51.76 65.578 49.3707 65.578 46.128ZM52.842 37.424C52.842 39.5147 53.2687 41.136 54.122 42.288C55.018 43.3973 56.2767 43.952 57.898 43.952C59.5193 43.952 61.1193 43.3547 62.698 42.16C64.2767 40.9653 65.5993 39.3227 66.666 37.232C67.05 32.9227 67.882 27.824 69.162 21.936C64.8527 21.936 61.0553 23.4933 57.77 26.608C54.4847 29.7227 52.842 33.328 52.842 37.424ZM109.311 24.112C107.732 24.5813 106.474 25.264 105.535 26.16C104.596 27.0133 103.764 28.2507 103.039 29.872C110.25 30.9387 115.327 32.4747 118.271 34.48C121.215 36.4853 122.687 39.344 122.687 43.056C122.687 45.4027 122.026 47.4507 120.703 49.2C119.38 50.9067 117.716 52.208 115.711 53.104C111.786 54.768 107.924 55.6 104.127 55.6C93.3323 55.6 87.935 53.2747 87.935 48.624C87.935 46.2773 88.9803 43.9307 91.071 41.584C92.1377 43.0773 93.7377 44.3573 95.871 45.424C98.047 46.4907 100.159 47.024 102.207 47.024C105.748 47.024 107.882 45.4667 108.607 42.352C102.122 41.584 97.4283 40.1333 94.527 38C91.6257 35.8667 90.175 32.8587 90.175 28.976C90.175 25.904 91.1777 23.3227 93.183 21.232C95.231 19.1413 97.7483 17.6907 100.735 16.88C103.764 16.0267 107.156 15.6 110.911 15.6C114.708 15.6 117.823 16.3253 120.255 17.776C122.73 19.184 123.967 20.912 123.967 22.96C123.967 25.008 123.242 26.5867 121.791 27.696C120.383 28.8053 118.826 29.36 117.119 29.36C115.455 29.36 113.919 28.912 112.511 28.016C111.146 27.12 110.079 25.8187 109.311 24.112ZM135.716 14.192L132.132 9.072C137.465 5.95733 141.668 4.4 144.74 4.4C146.489 4.4 147.727 4.76266 148.452 5.488C149.177 6.17066 149.54 7.344 149.54 9.008C149.54 10.6293 149.263 12.912 148.708 15.856C148.196 18.8 147.492 22.2773 146.596 26.288C145.743 30.2987 145.124 33.52 144.74 35.952L148.772 32.368C149.156 32.0267 149.775 31.4933 150.628 30.768C151.524 30 152.143 29.4453 152.484 29.104C152.868 28.7627 153.38 28.2933 154.02 27.696C154.66 27.056 155.129 26.5227 155.428 26.096C155.727 25.6693 156.068 25.1787 156.452 24.624C157.049 23.6853 157.348 22.64 157.348 21.488C157.348 20.2933 157.177 19.248 156.836 18.352C159.865 16.5173 162.724 15.6 165.412 15.6C167.204 15.6 168.633 16.176 169.7 17.328C170.767 18.4373 171.3 20.0587 171.3 22.192C171.3 24.3253 170.319 26.48 168.356 28.656C166.436 30.7893 164.047 32.6667 161.188 34.288C162.511 38.6827 164.217 42.7147 166.308 46.384C168.399 50.0533 170.148 52.2507 171.556 52.976C169.849 54.7253 167.204 55.6 163.62 55.6C160.975 55.6 158.735 54.704 156.9 52.912C155.108 51.12 153.508 48.176 152.1 44.08L150.5 39.536L143.908 42.8C143.865 43.2693 143.844 43.9733 143.844 44.912C143.844 48.4533 144.505 50.9707 145.828 52.464C142.841 54.5547 140.132 55.6 137.7 55.6C135.268 55.6 133.476 54.8107 132.324 53.232C131.215 51.6107 130.66 49.392 130.66 46.576C130.66 43.76 131.449 38 133.028 29.296C134.607 20.592 135.503 15.5573 135.716 14.192ZM197.005 5.488C197.005 7.10933 196.151 8.51733 194.445 9.712C192.738 10.864 190.797 11.44 188.621 11.44C186.445 11.44 184.717 11.0133 183.437 10.16C182.199 9.30666 181.581 8.15466 181.581 6.704C181.581 4.74133 182.498 3.20533 184.333 2.096C186.167 0.986665 188.109 0.431999 190.157 0.431999C192.205 0.431999 193.847 0.858665 195.085 1.712C196.365 2.56533 197.005 3.824 197.005 5.488ZM184.525 55.6C181.879 55.6 179.959 54.9387 178.765 53.616C177.57 52.2933 176.973 50.288 176.973 47.6C176.973 44.8693 178.338 37.5947 181.069 25.776L177.485 20.4C182.818 17.2 187.021 15.6 190.093 15.6C191.842 15.6 193.079 15.984 193.805 16.752C194.53 17.4773 194.893 18.672 194.893 20.336C194.893 20.976 194.103 24.7307 192.525 31.6C190.946 38.4693 190.157 43.376 190.157 46.32C190.157 49.264 190.818 51.312 192.141 52.464C189.751 54.5547 187.213 55.6 184.525 55.6ZM201.145 33.712C200.846 32.7733 200.697 31.8133 200.697 30.832C200.697 28.784 201.273 27.2267 202.425 26.16C203.577 25.0933 205.049 24.5387 206.841 24.496C206.542 23.1733 206.393 21.7227 206.393 20.144C206.393 15.4507 207.609 11.4187 210.041 8.048C212.473 4.63466 215.908 2.928 220.345 2.928C222.777 2.928 224.676 3.65333 226.041 5.104C227.449 6.55466 228.153 8.24 228.153 10.16C228.153 12.08 227.492 13.7227 226.169 15.088C224.846 16.4107 223.118 17.072 220.985 17.072C218.852 17.072 216.953 16.56 215.289 15.536L214.393 16.24L216.633 23.856C218.852 23.5573 221.113 22.9813 223.417 22.128C223.716 23.0667 223.865 24.2187 223.865 25.584C223.865 26.9067 223.46 28.1653 222.649 29.36C221.881 30.512 220.75 31.2587 219.257 31.6C216.526 44.1867 215.161 53.1467 215.161 58.48C215.161 61.2107 215.822 63.152 217.145 64.304C214.03 66.3947 211.257 67.44 208.825 67.44C204.046 67.44 201.657 64.496 201.657 58.608C201.657 54.9387 202.98 46.2773 205.625 32.624C203.705 33.008 202.212 33.3707 201.145 33.712ZM246.498 52.72C244.493 53.4453 242.487 53.808 240.482 53.808C238.477 53.808 236.791 53.2107 235.426 52.016C234.061 50.8213 233.271 49.2 233.058 47.152C232.845 45.104 232.653 42.1387 232.482 38.256C232.311 34.3307 232.141 31.5573 231.97 29.936C231.415 24.5173 229.709 20.656 226.85 18.352C228.855 16.5173 231.373 15.6 234.402 15.6C236.066 15.6 237.517 16.048 238.754 16.944C239.991 17.7973 240.973 18.9493 241.698 20.4C242.466 21.808 243.085 23.6427 243.554 25.904C244.279 29.6587 244.642 34.736 244.642 41.136C244.642 42.7147 244.578 44.5707 244.45 46.704H248.162C252.557 34.8427 254.754 26.7573 254.754 22.448C254.754 20.9973 254.434 19.632 253.794 18.352C256.781 16.5173 259.383 15.6 261.602 15.6C265.741 15.6 267.81 17.9893 267.81 22.768C267.81 26.5653 266.061 33.2427 262.562 42.8C261.922 44.5493 261.559 45.5733 261.474 45.872C256.055 61.3173 248.354 69.04 238.37 69.04C235.341 69.04 232.845 68.3787 230.882 67.056C228.919 65.776 227.938 64.0693 227.938 61.936C227.938 59.8453 228.727 57.648 230.306 55.344C232.354 58.2453 234.914 59.696 237.986 59.696C239.735 59.696 241.357 59.12 242.85 57.968C244.386 56.816 245.602 55.0667 246.498 52.72Z" fill="url(#paint0_linear_197_584)"/>
</g>
<defs>
<filter id="filter0_di_197_584" x="0.832031" y="0.431641" width="270.978" height="76.6084" filterUnits="userSpaceOnUse" color-interpolation-filters="sRGB">
<feFlood flood-opacity="0" result="BackgroundImageFix"/>
<feColorMatrix in="SourceAlpha" type="matrix" values="0 0 0 0 0 0 0 0 0 0 0 0 0 0 0 0 0 0 127 0" result="hardAlpha"/>
<feOffset dy="4"/>
<feGaussianBlur stdDeviation="2"/>
<feComposite in2="hardAlpha" operator="out"/>
<feColorMatrix type="matrix" values="0 0 0 0 0 0 0 0 0 0 0 0 0 0 0 0 0 0 0.25 0"/>
<feBlend mode="normal" in2="BackgroundImageFix" result="effect1_dropShadow_197_584"/>
<feBlend mode="normal" in="SourceGraphic" in2="effect1_dropShadow_197_584" result="shape"/>
<feColorMatrix in="SourceAlpha" type="matrix" values="0 0 0 0 0 0 0 0 0 0 0 0 0 0 0 0 0 0 127 0" result="hardAlpha"/>
<feOffset dy="4"/>
<feGaussianBlur stdDeviation="2"/>
<feComposite in2="hardAlpha" operator="arithmetic" k2="-1" k3="1"/>
<feColorMatrix type="matrix" values="0 0 0 0 0 0 0 0 0 0 0 0 0 0 0 0 0 0 0.25 0"/>
<feBlend mode="normal" in2="shape" result="effect2_innerShadow_197_584"/>
</filter>
<linearGradient id="paint0_linear_197_584" x1="4" y1="31" x2="270" y2="31" gradientUnits="userSpaceOnUse">
<stop stop-color="#EE6A0A"/>
<stop offset="0.485" stop-color="#DD4211"/>
<stop offset="1" stop-color="#FF5E03"/>
</linearGradient>
</defs>
</svg>
